<?xml version="1.0" standalone="no"?>
<!DOCTYPE svg PUBLIC "-//W3C//DTD SVG 20010904//EN"
 "http://www.w3.org/TR/2001/REC-SVG-20010904/DTD/svg10.dtd">
<svg version="1.0" xmlns="http://www.w3.org/2000/svg"
 width="409.000000pt" height="409.000000pt" viewBox="0 0 409.000000 409.000000"
 preserveAspectRatio="xMidYMid meet">
<metadata>
Created by potrace 1.11, written by Peter Selinger 2001-2013
</metadata>
<g transform="translate(0.000000,409.000000) scale(0.100000,-0.100000)"
fill="#000000" stroke="none">
<path d="M3618 3241 c-112 -19 -153 -31 -167 -46 -10 -11 -33 -66 -50 -122
l-32 -103 -382 0 c-286 0 -388 -3 -407 -13 -55 -27 -80 -210 -57 -414 7 -62 6
-73 -7 -73 -8 0 -16 10 -18 21 -5 36 -47 58 -123 65 -66 6 -71 5 -94 -20 -16
-17 -25 -41 -29 -75 -4 -45 -6 -49 -23 -41 -10 6 -49 10 -87 10 -75 0 -82 5
-82 56 0 14 -12 37 -26 51 -24 24 -29 25 -97 18 -85 -8 -105 -17 -118 -55 -9
-23 -18 -29 -55 -35 -50 -7 -84 -34 -84 -65 0 -11 -3 -20 -7 -20 -40 0 -130
-23 -144 -36 -26 -24 -23 -73 16 -242 5 -20 0 -18 -47 19 -65 52 -168 100
-273 130 -98 27 -310 37 -412 20 -151 -26 -311 -92 -332 -137 -7 -15 -22 -27
-41 -30 -49 -10 -166 -159 -191 -244 -15 -49 10 -105 57 -128 31 -14 33 -19
36 -71 2 -33 -3 -68 -11 -85 -8 -18 -11 -47 -8 -74 4 -36 0 -51 -19 -80 -28
-40 -33 -130 -10 -172 13 -22 12 -27 -14 -57 -37 -41 -46 -91 -30 -161 16 -73
83 -143 152 -160 57 -15 1039 -17 1054 -3 12 12 55 16 76 7 22 -10 66 14 111
61 l37 37 0 -27 c0 -16 10 -38 25 -52 l24 -25 429 0 c395 0 432 1 451 18 17
14 27 53 58 237 42 242 55 246 27 6 -17 -151 -17 -154 2 -189 38 -70 49 -72
412 -72 350 0 369 2 410 55 27 34 27 63 6 233 -11 88 -21 133 -33 147 -22 25
-27 91 -7 98 10 4 16 37 21 134 11 220 43 410 101 601 70 229 98 391 98 562 1
149 -11 208 -49 246 -22 22 -33 24 -114 24 l-90 0 30 88 29 88 143 23 c78 13
150 27 160 32 34 19 13 70 -27 68 -12 -1 -87 -13 -168 -28z m-874 -375 c-3 -6
0 -4 8 4 12 13 32 15 106 11 8 -1 10 -6 6 -13 -6 -10 -4 -10 7 -2 17 13 79 24
79 13 0 -4 7 -9 14 -12 9 -4 13 -1 10 6 -4 10 61 14 129 8 5 -1 5 -7 1 -13 -6
-10 -4 -10 7 -2 17 13 79 24 79 13 0 -4 7 -9 14 -12 9 -4 13 -1 10 6 -5 13 54
15 74 3 7 -4 12 -1 13 6 0 10 2 10 6 -1 5 -11 7 -11 15 0 7 10 8 3 4 -20 -4
-19 -14 -44 -24 -55 -9 -10 -11 -16 -4 -12 6 4 12 3 12 -3 0 -5 -12 -9 -27 -9
-42 1 -57 -5 -65 -24 -5 -12 -18 -18 -41 -18 -32 0 -64 20 -52 32 7 7 5 7
-272 8 -279 2 -259 -4 -244 65 6 28 10 30 61 35 63 6 82 3 74 -14z m860 6 c3
-5 8 -28 12 -50 l7 -42 -113 0 c-112 0 -112 0 -106 23 4 12 9 34 12 50 6 27 7
27 95 27 48 0 90 -4 93 -8z m-1113 -1478 c-7 -31 -9 -34 -10 -12 -1 27 9 62
15 55 3 -2 0 -22 -5 -43z m-9 -74 c-2 -17 -9 -33 -15 -37 -7 -4 -8 0 -4 11 4
10 7 26 7 37 0 10 4 19 8 19 5 0 7 -14 4 -30z m308 -273 c0 15 152 15 162 -1
6 -8 8 -7 8 2 0 6 10 12 23 12 13 0 29 -6 36 -12 11 -11 12 -10 7 0 -9 16 61
14 83 -2 11 -8 13 -8 7 2 -5 8 1 12 19 12 14 0 24 -4 21 -9 -3 -5 2 -15 12
-22 15 -12 16 -12 5 2 -7 9 -10 19 -6 22 3 4 68 7 144 7 116 0 138 -2 143 -16
10 -27 7 -61 -7 -73 -16 -12 -530 -13 -522 -1 3 4 -3 14 -13 21 -15 13 -16 12
-4 -3 17 -22 9 -25 -65 -26 -74 -1 -88 11 -78 65 5 27 9 33 16 22 5 -8 9 -9 9
-2z"/>
<path d="M2670 2866 c0 -2 8 -10 18 -17 15 -13 16 -12 3 4 -13 16 -21 21 -21
13z"/>
<path d="M2813 2848 c0 -13 1 -17 4 -10 3 6 10 9 16 5 7 -4 6 1 -2 10 -17 21
-17 21 -18 -5z"/>
<path d="M3015 2860 c-4 -6 -10 -8 -15 -5 -5 3 -12 0 -16 -7 -4 -7 -4 -10 1
-6 4 4 15 3 24 -2 13 -6 17 -4 17 11 0 22 -2 23 -11 9z"/>
<path d="M3053 2848 c0 -13 1 -17 4 -10 3 6 10 9 16 5 7 -4 6 1 -2 10 -17 21
-17 21 -18 -5z"/>
<path d="M3255 2860 c-4 -6 -10 -8 -15 -5 -5 3 -12 0 -16 -7 -4 -7 -4 -10 1
-6 4 4 15 3 24 -2 13 -6 17 -4 17 11 0 22 -2 23 -11 9z"/>
<path d="M2624 2848 c-4 -7 -3 -8 5 -4 6 4 20 2 29 -6 15 -12 16 -11 3 5 -16
20 -27 22 -37 5z"/>
<path d="M3296 2848 c3 -5 10 -6 15 -3 13 9 11 12 -6 12 -8 0 -12 -4 -9 -9z"/>
<path d="M2718 2833 c7 -3 16 -2 19 1 4 3 -2 6 -13 5 -11 0 -14 -3 -6 -6z"/>
<path d="M2910 2831 c0 -6 4 -12 8 -15 5 -3 9 1 9 9 0 8 -4 15 -9 15 -4 0 -8
-4 -8 -9z"/>
<path d="M3150 2833 c0 -5 5 -15 10 -23 7 -12 9 -10 7 8 -1 19 -17 33 -17 15z"/>
<path d="M2694 2810 c0 -13 4 -16 10 -10 7 7 7 13 0 20 -6 6 -10 3 -10 -10z"/>
<path d="M2835 2820 c-4 -6 -10 -8 -14 -6 -4 3 -8 -1 -8 -9 0 -11 4 -12 13 -4
8 7 14 6 17 -3 3 -7 4 -3 4 10 -1 25 -3 26 -12 12z"/>
<path d="M2970 2815 c-7 -9 -11 -17 -9 -20 3 -2 10 5 17 15 14 24 10 26 -8 5z"/>
<path d="M3075 2820 c-4 -6 -10 -8 -14 -6 -4 3 -8 -1 -8 -9 0 -11 4 -12 13 -4
8 7 14 6 17 -3 3 -7 4 -3 4 10 -1 25 -3 26 -12 12z"/>
<path d="M3214 2819 c-3 -6 -2 -15 3 -20 5 -5 9 -1 9 11 0 23 -2 24 -12 9z"/>
<path d="M2721 2804 c0 -11 3 -14 6 -6 3 7 2 16 -1 19 -3 4 -6 -2 -5 -13z"/>
<path d="M2754 2812 c4 -3 14 -7 22 -8 9 -1 13 0 10 4 -4 3 -14 7 -22 8 -9 1
-13 0 -10 -4z"/>
<path d="M3266 2808 c3 -5 10 -6 15 -3 13 9 11 12 -6 12 -8 0 -12 -4 -9 -9z"/>
<path d="M3140 2781 c0 -6 4 -13 10 -16 6 -3 7 1 4 9 -7 18 -14 21 -14 7z"/>
<path d="M2814 1038 c-4 -7 -3 -8 5 -4 6 4 20 2 29 -6 15 -12 16 -11 3 5 -16
20 -27 22 -37 5z"/>
<path d="M2990 1046 c0 -2 8 -10 18 -17 15 -13 16 -12 3 4 -13 16 -21 21 -21
13z"/>
<path d="M2775 1019 c-4 -6 -5 -12 -2 -15 2 -3 7 2 10 11 7 17 1 20 -8 4z"/>
<path d="M2914 1012 c4 -3 14 -7 22 -8 9 -1 13 0 10 4 -4 3 -14 7 -22 8 -9 1
-13 0 -10 -4z"/>
<path d="M2974 1012 c4 -3 14 -7 22 -8 9 -1 13 0 10 4 -4 3 -14 7 -22 8 -9 1
-13 0 -10 -4z"/>
<path d="M3134 1012 c4 -3 14 -7 22 -8 9 -1 13 0 10 4 -4 3 -14 7 -22 8 -9 1
-13 0 -10 -4z"/>
<path d="M3072 985 c15 -16 20 -17 30 -6 11 11 10 13 0 7 -7 -4 -21 -2 -30 5
-15 12 -15 11 0 -6z"/>
</g>
</svg>
